<svg width="200" height="200" viewBox="0 0 200 200" fill="none" xmlns="http://www.w3.org/2000/svg">
<path opacity="0.2" d="M137.789 181.682C140.108 186.695 137.935 192.69 132.717 194.497C116.219 200.209 98.5071 201.502 81.3552 198.247C75.9293 197.217 72.9093 191.601 74.4756 186.305C76.0419 181.009 81.6035 178.052 87.0536 178.946C99.4999 180.987 112.257 180.056 124.275 176.228C129.538 174.552 135.47 176.67 137.789 181.682Z" fill="#2BDE73"/>
<path d="M72.1885 185.595C70.4818 190.848 64.8138 193.768 59.7579 191.545C48.858 186.754 38.8759 180.043 30.2997 171.707C19.3274 161.042 10.949 148.001 5.80947 133.588C0.669979 119.175 -1.09346 103.775 0.654931 88.5738C2.40332 73.3724 7.6169 58.775 15.8943 45.9054C24.1716 33.0359 35.292 22.2375 48.3991 14.3417C61.5062 6.44591 76.2505 1.66333 91.4967 0.362187C106.743 -0.938958 122.084 1.27604 136.34 6.83664C147.482 11.1829 157.729 17.4825 166.61 25.4134C170.729 29.0921 170.422 35.4609 166.351 39.1924C162.279 42.9238 155.989 42.5919 151.779 39.0173C145.032 33.2879 137.362 28.7029 129.072 25.4693C117.668 21.0208 105.394 19.2488 93.1974 20.2897C81.0004 21.3307 69.205 25.1567 58.7193 31.4734C48.2336 37.79 39.3373 46.4287 32.7154 56.7243C26.0935 67.02 21.9227 78.6979 20.5239 90.8591C19.1252 103.02 20.536 115.34 24.6476 126.87C28.7592 138.4 35.4619 148.833 44.2398 157.365C50.6203 163.568 57.9736 168.645 65.9856 172.409C70.9844 174.757 73.8951 180.343 72.1885 185.595Z" fill="#2BDE73"/>
<path opacity="0.5" d="M168.106 41.1643C172.285 37.5539 178.646 37.9895 181.821 42.5084C188.637 52.2089 193.69 63.0669 196.716 74.5847C200.592 89.3343 201.043 104.775 198.035 119.726C195.027 134.676 188.639 148.741 179.36 160.844C172.114 170.295 163.256 178.354 153.218 184.663C148.542 187.602 142.508 185.544 140.05 180.598C137.592 175.652 139.654 169.7 144.254 166.645C151.595 161.771 158.099 155.704 163.488 148.675C170.911 138.993 176.022 127.741 178.428 115.781C180.835 103.82 180.474 91.4674 177.373 79.6678C175.122 71.1015 171.47 62.9913 166.586 55.6574C163.525 51.0605 163.926 44.7748 168.106 41.1643Z" fill="#15526E"/>
<g clip-path="url(#clip0_1_1672)">
<path d="M59.1417 105.89C59.8217 105.35 60.1317 105.1 60.0717 105.14C62.0317 103.52 63.5717 102.19 64.6917 101.15C65.8317 100.11 66.7917 99.02 67.5717 97.88C68.3517 96.74 68.7417 95.63 68.7417 94.55C68.7417 93.73 68.5517 93.09 68.1717 92.63C67.7917 92.17 67.2217 91.94 66.4617 91.94C65.7017 91.94 65.1017 92.23 64.6617 92.81C64.2417 93.37 64.0317 94.17 64.0317 95.21H59.0817C59.1217 93.51 59.4817 92.09 60.1617 90.95C60.8617 89.81 61.7717 88.97 62.8917 88.43C64.0317 87.89 65.2917 87.62 66.6717 87.62C69.0517 87.62 70.8417 88.23 72.0417 89.45C73.2617 90.67 73.8717 92.26 73.8717 94.22C73.8717 96.36 73.1417 98.35 71.6817 100.19C70.2217 102.01 68.3617 103.79 66.1017 105.53H74.2017V109.7H59.1417V105.89ZM82.4904 105.26L79.1604 113.87H75.8904L77.6304 105.26H82.4904ZM85.2536 94.28C85.3336 92.14 86.0336 90.49 87.3536 89.33C88.6736 88.17 90.4636 87.59 92.7236 87.59C94.2236 87.59 95.5036 87.85 96.5636 88.37C97.6436 88.89 98.4536 89.6 98.9936 90.5C99.5536 91.4 99.8336 92.41 99.8336 93.53C99.8336 94.85 99.5036 95.93 98.8436 96.77C98.1836 97.59 97.4136 98.15 96.5336 98.45V98.57C97.6736 98.95 98.5736 99.58 99.2336 100.46C99.8936 101.34 100.224 102.47 100.224 103.85C100.224 105.09 99.9336 106.19 99.3536 107.15C98.7936 108.09 97.9636 108.83 96.8636 109.37C95.7836 109.91 94.4936 110.18 92.9936 110.18C90.5936 110.18 88.6736 109.59 87.2336 108.41C85.8136 107.23 85.0636 105.45 84.9836 103.07H89.9636C89.9836 103.95 90.2336 104.65 90.7136 105.17C91.1936 105.67 91.8936 105.92 92.8136 105.92C93.5936 105.92 94.1936 105.7 94.6136 105.26C95.0536 104.8 95.2736 104.2 95.2736 103.46C95.2736 102.5 94.9636 101.81 94.3436 101.39C93.7436 100.95 92.7736 100.73 91.4336 100.73H90.4736V96.56H91.4336C92.4536 96.56 93.2736 96.39 93.8936 96.05C94.5336 95.69 94.8536 95.06 94.8536 94.16C94.8536 93.44 94.6536 92.88 94.2536 92.48C93.8536 92.08 93.3036 91.88 92.6036 91.88C91.8436 91.88 91.2736 92.11 90.8936 92.57C90.5336 93.03 90.3236 93.6 90.2636 94.28H85.2536ZM103.238 98.75C103.238 95.31 103.898 92.6 105.218 90.62C106.558 88.64 108.708 87.65 111.668 87.65C114.628 87.65 116.768 88.64 118.088 90.62C119.428 92.6 120.098 95.31 120.098 98.75C120.098 102.23 119.428 104.96 118.088 106.94C116.768 108.92 114.628 109.91 111.668 109.91C108.708 109.91 106.558 108.92 105.218 106.94C103.898 104.96 103.238 102.23 103.238 98.75ZM115.058 98.75C115.058 96.73 114.838 95.18 114.398 94.1C113.958 93 113.048 92.45 111.668 92.45C110.288 92.45 109.378 93 108.938 94.1C108.498 95.18 108.278 96.73 108.278 98.75C108.278 100.11 108.358 101.24 108.518 102.14C108.678 103.02 108.998 103.74 109.478 104.3C109.978 104.84 110.708 105.11 111.668 105.11C112.628 105.11 113.348 104.84 113.828 104.3C114.328 103.74 114.658 103.02 114.818 102.14C114.978 101.24 115.058 100.11 115.058 98.75ZM122.808 98.75C122.808 95.31 123.468 92.6 124.788 90.62C126.128 88.64 128.278 87.65 131.238 87.65C134.198 87.65 136.338 88.64 137.658 90.62C138.998 92.6 139.668 95.31 139.668 98.75C139.668 102.23 138.998 104.96 137.658 106.94C136.338 108.92 134.198 109.91 131.238 109.91C128.278 109.91 126.128 108.92 124.788 106.94C123.468 104.96 122.808 102.23 122.808 98.75ZM134.628 98.75C134.628 96.73 134.408 95.18 133.968 94.1C133.528 93 132.618 92.45 131.238 92.45C129.858 92.45 128.948 93 128.508 94.1C128.068 95.18 127.848 96.73 127.848 98.75C127.848 100.11 127.928 101.24 128.088 102.14C128.248 103.02 128.568 103.74 129.048 104.3C129.548 104.84 130.278 105.11 131.238 105.11C132.198 105.11 132.918 104.84 133.398 104.3C133.898 103.74 134.228 103.02 134.388 102.14C134.548 101.24 134.628 100.11 134.628 98.75Z" fill="white"/>
<path d="M80.4849 139.416C80.4849 138.328 80.7302 137.352 81.2209 136.488C81.7115 135.613 82.3782 134.931 83.2209 134.44C84.0742 133.949 85.0182 133.704 86.0529 133.704C87.2689 133.704 88.3302 133.997 89.2369 134.584C90.1435 135.171 90.8049 136.003 91.2209 137.08H89.4769C89.1675 136.408 88.7195 135.891 88.1329 135.528C87.5569 135.165 86.8635 134.984 86.0529 134.984C85.2742 134.984 84.5755 135.165 83.9569 135.528C83.3382 135.891 82.8529 136.408 82.5009 137.08C82.1489 137.741 81.9729 138.52 81.9729 139.416C81.9729 140.301 82.1489 141.08 82.5009 141.752C82.8529 142.413 83.3382 142.925 83.9569 143.288C84.5755 143.651 85.2742 143.832 86.0529 143.832C86.8635 143.832 87.5569 143.656 88.1329 143.304C88.7195 142.941 89.1675 142.424 89.4769 141.752H91.2209C90.8049 142.819 90.1435 143.645 89.2369 144.232C88.3302 144.808 87.2689 145.096 86.0529 145.096C85.0182 145.096 84.0742 144.856 83.2209 144.376C82.3782 143.885 81.7115 143.208 81.2209 142.344C80.7302 141.48 80.4849 140.504 80.4849 139.416ZM92.8443 140.584C92.8443 139.688 93.0256 138.904 93.3883 138.232C93.7509 137.549 94.2469 137.021 94.8763 136.648C95.5163 136.275 96.2256 136.088 97.0043 136.088C97.7723 136.088 98.4389 136.253 99.0043 136.584C99.5696 136.915 99.9909 137.331 100.268 137.832V136.232H101.74V145H100.268V143.368C99.9803 143.88 99.5483 144.307 98.9723 144.648C98.4069 144.979 97.7456 145.144 96.9883 145.144C96.2096 145.144 95.5056 144.952 94.8763 144.568C94.2469 144.184 93.7509 143.645 93.3883 142.952C93.0256 142.259 92.8443 141.469 92.8443 140.584ZM100.268 140.6C100.268 139.939 100.135 139.363 99.8683 138.872C99.6016 138.381 99.2389 138.008 98.7803 137.752C98.3323 137.485 97.8363 137.352 97.2923 137.352C96.7483 137.352 96.2523 137.48 95.8043 137.736C95.3563 137.992 94.9989 138.365 94.7323 138.856C94.4656 139.347 94.3323 139.923 94.3323 140.584C94.3323 141.256 94.4656 141.843 94.7323 142.344C94.9989 142.835 95.3563 143.213 95.8043 143.48C96.2523 143.736 96.7483 143.864 97.2923 143.864C97.8363 143.864 98.3323 143.736 98.7803 143.48C99.2389 143.213 99.6016 142.835 99.8683 142.344C100.135 141.843 100.268 141.261 100.268 140.6ZM105.657 133.16V145H104.201V133.16H105.657ZM109.594 133.16V145H108.138V133.16H109.594ZM115.18 145.144C114.508 145.144 113.905 145.032 113.372 144.808C112.838 144.573 112.417 144.253 112.108 143.848C111.798 143.432 111.628 142.957 111.596 142.424H113.1C113.142 142.861 113.345 143.219 113.708 143.496C114.081 143.773 114.566 143.912 115.164 143.912C115.718 143.912 116.156 143.789 116.476 143.544C116.796 143.299 116.956 142.989 116.956 142.616C116.956 142.232 116.785 141.949 116.444 141.768C116.102 141.576 115.574 141.389 114.86 141.208C114.209 141.037 113.676 140.867 113.26 140.696C112.854 140.515 112.502 140.253 112.204 139.912C111.916 139.56 111.772 139.101 111.772 138.536C111.772 138.088 111.905 137.677 112.172 137.304C112.438 136.931 112.817 136.637 113.308 136.424C113.798 136.2 114.358 136.088 114.988 136.088C115.958 136.088 116.742 136.333 117.34 136.824C117.937 137.315 118.257 137.987 118.3 138.84H116.844C116.812 138.381 116.625 138.013 116.284 137.736C115.953 137.459 115.505 137.32 114.94 137.32C114.417 137.32 114.001 137.432 113.692 137.656C113.382 137.88 113.228 138.173 113.228 138.536C113.228 138.824 113.318 139.064 113.5 139.256C113.692 139.437 113.926 139.587 114.204 139.704C114.492 139.811 114.886 139.933 115.388 140.072C116.017 140.243 116.529 140.413 116.924 140.584C117.318 140.744 117.654 140.989 117.932 141.32C118.22 141.651 118.369 142.083 118.38 142.616C118.38 143.096 118.246 143.528 117.98 143.912C117.713 144.296 117.334 144.6 116.844 144.824C116.364 145.037 115.809 145.144 115.18 145.144Z" fill="#EBEBF5" fill-opacity="0.3"/>
</g>
<defs>
<clipPath id="clip0_1_1672">
<rect width="84" height="75" fill="white" transform="translate(57.5 76)"/>
</clipPath>
</defs>
</svg>
