<svg width="25" height="27" viewBox="0 0 47 46" fill="none" xmlns="http://www.w3.org/2000/svg">
<rect x="0.985229" y="0.50824" width="46.0148" height="44.9836" rx="22.4918" fill="#363636"/>
<path d="M31.0089 25.9605C30.8718 26.0809 30.7699 26.2362 30.714 26.4098C30.6581 26.5835 30.6503 26.769 30.6914 26.9468L32.3814 34.2643C32.426 34.4554 32.4135 34.6554 32.3452 34.8394C32.277 35.0235 32.1561 35.1833 31.9977 35.2992C31.8392 35.415 31.6502 35.4816 31.4541 35.4907C31.2581 35.4999 31.0636 35.4511 30.8951 35.3505L24.5076 31.4755C24.3524 31.3811 24.1743 31.3312 23.9926 31.3312C23.811 31.3312 23.6328 31.3811 23.4776 31.4755L17.0901 35.3505C16.9216 35.4511 16.7272 35.4999 16.5311 35.4907C16.3351 35.4816 16.146 35.415 15.9876 35.2992C15.8291 35.1833 15.7082 35.0235 15.64 34.8394C15.5718 34.6554 15.5592 34.4554 15.6039 34.2643L17.2939 26.9468C17.3349 26.769 17.3271 26.5835 17.2712 26.4098C17.2153 26.2362 17.1134 26.0809 16.9764 25.9605L11.3376 21.0418C11.1869 20.9136 11.0775 20.7437 11.0234 20.5534C10.9693 20.3631 10.9728 20.161 11.0335 19.9727C11.0943 19.7844 11.2095 19.6184 11.3647 19.4956C11.5198 19.3728 11.7079 19.2989 11.9051 19.283L19.3376 18.6405C19.5189 18.6244 19.6924 18.559 19.8394 18.4515C19.9863 18.344 20.1011 18.1984 20.1714 18.0305L23.0751 11.1105C23.1527 10.9316 23.2808 10.7793 23.4439 10.6723C23.6069 10.5653 23.7976 10.5082 23.9926 10.5082C24.1876 10.5082 24.3784 10.5653 24.5414 10.6723C24.7044 10.7793 24.8326 10.9316 24.9101 11.1105L27.8139 18.0305C27.8841 18.1984 27.9989 18.344 28.1459 18.4515C28.2928 18.559 28.4663 18.6244 28.6476 18.6405L36.0801 19.283C36.2773 19.2989 36.4654 19.3728 36.6205 19.4956C36.7757 19.6184 36.8909 19.7844 36.9517 19.9727C37.0124 20.161 37.016 20.3631 36.9618 20.5534C36.9077 20.7437 36.7984 20.9136 36.6476 21.0418L31.0089 25.9605Z" fill="url(#paint0_linear_1_1262)"/>
<defs>
<linearGradient id="paint0_linear_1_1262" x1="23.9926" y1="10.5082" x2="23.9926" y2="35.4918" gradientUnits="userSpaceOnUse">
<stop stop-color="#F4DBBA"/>
<stop offset="1" stop-color="#965A2A"/>
</linearGradient>
</defs>
</svg>
