<svg width="40" height="40" viewBox="0 0 62 62" fill="none" xmlns="http://www.w3.org/2000/svg">
<path d="M0 31C0 13.8792 13.8792 0 31 0C48.1208 0 62 13.8792 62 31C62 48.1208 48.1208 62 31 62C13.8792 62 0 48.1208 0 31Z" fill="white"/>
<path d="M31 22.7609C33.5225 22.7609 35.2241 23.8505 36.1942 24.7609L39.9854 21.0593C37.657 18.8951 34.627 17.5667 31 17.5667C25.7461 17.5667 21.2086 20.5817 18.9996 24.9699L23.343 28.3432C24.4326 25.1042 27.4476 22.7609 31 22.7609Z" fill="#EA4335"/>
<path d="M43.896 31.2992C43.896 30.1946 43.8064 29.3886 43.6124 28.5528H31V33.5381H38.4033C38.254 34.7769 37.448 36.6426 35.6569 37.8964L39.8959 41.1801C42.4333 38.8368 43.896 35.3889 43.896 31.2992Z" fill="#4285F4"/>
<path d="M23.3579 33.6573C23.0743 32.8214 22.9101 31.9259 22.9101 31.0005C22.9101 30.0751 23.0743 29.1795 23.343 28.3437L18.9995 24.9704C18.0891 26.7914 17.5667 28.8362 17.5667 31.0005C17.5667 33.1647 18.0891 35.2096 18.9995 37.0305L23.3579 33.6573Z" fill="#FBBC05"/>
<path d="M31 44.4335C34.627 44.4335 37.6719 43.2394 39.8958 41.1796L35.6569 37.8959C34.5225 38.687 33.0001 39.2393 31 39.2393C27.4476 39.2393 24.4326 36.8959 23.3579 33.657L19.0145 37.0302C21.2235 41.4185 25.7461 44.4335 31 44.4335Z" fill="#34A853"/>
</svg>
