<svg width="19" height="19" viewBox="0 0 19 19" fill="none" xmlns="http://www.w3.org/2000/svg">
<path d="M13.8399 17.5926C13.6457 17.5926 13.4524 17.533 13.2861 17.4143L9.37563 14.6099L5.46514 17.4143C5.30312 17.5308 5.10842 17.5932 4.90883 17.5925C4.70924 17.5918 4.51497 17.5281 4.35376 17.4104C4.19241 17.2934 4.07205 17.1285 4.00983 16.9392C3.9476 16.7498 3.94668 16.5457 4.00718 16.3558L5.46562 11.6488L1.59022 8.9179C1.42961 8.79937 1.31033 8.63334 1.24926 8.4433C1.18818 8.25326 1.1884 8.04883 1.24989 7.85892C1.31186 7.66947 1.4318 7.50429 1.59276 7.38672C1.75372 7.26915 1.94755 7.20513 2.14687 7.20373L6.94666 7.19652L8.4748 2.60632C8.53786 2.41722 8.65882 2.25276 8.82054 2.13622C8.98225 2.01968 9.17654 1.95697 9.37587 1.95697C9.5752 1.95697 9.76949 2.01968 9.9312 2.13622C10.0929 2.25276 10.2139 2.41722 10.2769 2.60632L11.7791 7.19652L16.6034 7.20373C16.803 7.20485 16.9971 7.26883 17.1582 7.38658C17.3194 7.50433 17.4393 7.66985 17.501 7.85964C17.5626 8.04943 17.563 8.25383 17.5018 8.4438C17.4407 8.63378 17.3213 8.79966 17.1606 8.9179L13.2852 11.6488L14.7436 16.3558C14.8042 16.5456 14.8034 16.7498 14.7413 16.9391C14.6791 17.1285 14.5588 17.2934 14.3975 17.4104C14.2358 17.529 14.0404 17.5929 13.8399 17.5926Z" fill="#FFAC33"/>
</svg>
