<svg width="22" height="20" viewBox="0 0 22 20" fill="none" xmlns="http://www.w3.org/2000/svg">
<path d="M17.2264 11.4961C17.2264 13.0296 16.7716 14.5287 15.9196 15.8039C15.0676 17.079 13.8566 18.0728 12.4398 18.6597C11.023 19.2465 9.46396 19.4001 7.95987 19.1009C6.45578 18.8017 5.07418 18.0632 3.98979 16.9788C2.9054 15.8944 2.16692 14.5129 1.86774 13.0088C1.56855 11.5047 1.72211 9.94563 2.30897 8.52881C2.89584 7.11198 3.88967 5.901 5.16478 5.049C6.43988 4.197 7.939 3.74225 9.47256 3.74225L9.47256 11.4961H17.2264Z" stroke="white" stroke-width="1.5" stroke-linecap="square"/>
<path d="M12.5273 0.750184C14.5837 0.750184 16.5559 1.5671 18.01 3.02122C19.4641 4.47535 20.2811 6.44756 20.2811 8.504L12.5273 8.504L12.5273 0.750184Z" stroke="white" stroke-width="1.5" stroke-linecap="square"/>
</svg>
