<svg width="30" height="30" viewBox="0 0 40 40" fill="none" xmlns="http://www.w3.org/2000/svg">
<path d="M14.3118 26.7524C13.785 28.7185 10.3676 29.5111 6.67894 28.5227C2.99024 27.5343 0.427016 25.1392 0.953832 23.1731C1.48065 21.207 4.898 20.4144 8.58671 21.4028C12.2754 22.3912 14.8386 24.7863 14.3118 26.7524Z" fill="url(#paint0_linear_5_2852)"/>
<path d="M17.9997 23.1406C20.1579 26.8787 20.5089 30.7165 18.7836 31.7125C17.0583 32.7086 13.9102 30.4858 11.752 26.7477C9.59379 23.0096 9.24285 19.1718 10.9681 18.1757C12.6934 17.1797 15.8416 19.4025 17.9997 23.1406Z" fill="#39A7AE"/>
<path d="M26.8601 38.0658C26.8601 38.8353 24.0691 39.4591 20.6263 39.4591C17.1834 39.4591 14.3925 38.8353 14.3925 38.0658C14.3925 37.2963 17.1834 36.6725 20.6263 36.6725C24.0691 36.6725 26.8601 37.2963 26.8601 38.0658Z" fill="url(#paint1_linear_5_2852)"/>
<path d="M36.0734 16.2668C36.5775 16.4019 36.2694 19.1863 35.3852 22.486C34.5011 25.7857 33.3757 28.3511 32.8716 28.2161C32.3675 28.081 32.6756 25.2966 33.5598 21.9969C34.4439 18.6972 35.5693 16.1318 36.0734 16.2668Z" fill="#FFE6C6"/>
<path d="M35.3064 8.79197C37.6759 12.8961 38.7273 16.7251 37.6548 17.3444C36.5822 17.9636 33.7919 15.1386 31.4223 11.0344C29.0528 6.93032 28.0014 3.10128 29.074 2.48204C30.1465 1.8628 32.9369 4.68785 35.3064 8.79197Z" fill="#FFE6C6"/>
<path d="M6.9947 14.02C6.9947 17.3513 5.97035 20.0518 4.70676 20.0518C3.44317 20.0518 2.41882 17.3513 2.41882 14.02C2.41882 10.6887 3.44317 7.98816 4.70676 7.98816C5.97035 7.98816 6.9947 10.6887 6.9947 14.02Z" fill="#00FFFF"/>
<path d="M14.8481 31.0825C16.5546 34.0381 17.1429 36.8932 16.1622 37.4594C15.1815 38.0256 13.0032 36.0885 11.2967 33.1329C9.59026 30.1772 9.00192 27.3222 9.98261 26.756C10.9633 26.1898 13.1417 28.1268 14.8481 31.0825Z" fill="#482CF1"/>
<path d="M15.6503 37.2583C18.5723 39.5349 23.8267 40.0249 29.5713 37.2888C26.749 38.8215 23.5102 39.69 20.0734 39.69C10.1164 39.69 1.86535 32.3945 0.38269 22.8593C2.0762 27.667 7.98232 25.2165 10.197 26.482C13.9565 28.6286 10.8919 33.5671 15.6503 37.2583Z" fill="url(#paint2_linear_5_2852)"/>
<path d="M40 19.842C40 27.398 35.7999 33.9679 29.6084 37.3488C29.5961 37.3612 29.5837 37.3678 29.5713 37.3736C23.8266 40.1097 18.5722 39.6196 15.6502 37.343C10.8918 33.6518 13.9565 28.7134 10.1969 26.5667C7.98225 25.3012 2.07614 27.7518 0.382625 22.944C0.376469 22.9377 0.376469 22.9377 0.376469 22.9313C0.221372 21.9265 0.140625 20.8903 0.140625 19.842C0.140625 17.77 0.456975 15.7661 1.04646 13.8863C0.481839 17.0069 1.27591 20.1088 3.88153 20.9895C7.43006 22.1868 11.63 19.1286 14.4899 21.3185C17.0458 23.285 14.3348 29.6377 19.6329 32.9505C27.4993 37.8763 40.4155 27.3797 39.5782 15.7475C39.8572 17.0689 40 18.44 40 19.842Z" fill="url(#paint3_linear_5_2852)"/>
<path d="M32.6671 24.9827C34.5841 22.4577 35.9365 19.1202 36.1225 15.8195C36.4887 9.42349 32.4623 4.20625 28.2313 1.74331C33.9636 4.31779 38.2567 9.51656 39.5782 15.8195C39.5782 15.8195 39.5782 15.8258 39.5782 15.8321C40.4156 27.4643 27.4993 37.9609 19.6329 33.0351C14.3349 29.7223 17.0459 23.3696 14.49 21.4031C11.63 19.2132 7.4301 22.2715 3.88157 21.0741C1.27595 20.1934 0.481878 17.0915 1.0465 13.9709C1.66061 11.9981 2.57877 10.1618 3.72649 8.51167C2.31202 11.8307 3.56511 15.0193 5.43871 15.8195C5.92873 16.0305 6.46235 16.1486 7.02057 16.1982C10.2653 16.5207 14.4838 14.8023 17.6167 17.2651C21.4879 20.3175 18.721 26.9867 23.8703 28.9219C26.9036 30.0635 30.2353 28.1776 32.6671 24.9827Z" fill="#FFE6C6"/>
<path d="M36.1226 15.8196C35.9366 19.1202 34.5842 22.4577 32.6672 24.9827C33.2938 23.4255 33.6411 21.7197 33.6411 19.9267C33.6411 12.4324 27.5676 6.359 20.0735 6.359C13.8697 6.359 8.63994 10.5154 7.02066 16.1982C6.46245 16.1486 5.92883 16.0306 5.4388 15.8196C3.5652 15.0193 2.31212 11.8308 3.72658 8.51171C7.33725 3.36244 13.3113 4.19617e-05 20.0735 4.19617e-05C22.9832 4.19617e-05 25.7438 0.620489 28.2314 1.74335C32.4624 4.20628 36.4888 9.42353 36.1226 15.8196Z" fill="url(#paint4_linear_5_2852)"/>
<defs>
<linearGradient id="paint0_linear_5_2852" x1="1.90771" y1="19.6132" x2="-5.17561e-05" y2="26.733" gradientUnits="userSpaceOnUse">
<stop stop-color="#0B3BE3"/>
<stop offset="1" stop-color="#F76B1C"/>
</linearGradient>
<linearGradient id="paint1_linear_5_2852" x1="14.3925" y1="36.6725" x2="14.3925" y2="39.4591" gradientUnits="userSpaceOnUse">
<stop stop-color="#0B3BE3"/>
<stop offset="1" stop-color="#F76B1C"/>
</linearGradient>
<linearGradient id="paint2_linear_5_2852" x1="8.25417" y1="36.496" x2="15.1817" y2="29.8786" gradientUnits="userSpaceOnUse">
<stop stop-color="#F1BE7E"/>
<stop offset="1" stop-color="#FFE6C6"/>
</linearGradient>
<linearGradient id="paint3_linear_5_2852" x1="13.3344" y1="30.4488" x2="18.5042" y2="22.9009" gradientUnits="userSpaceOnUse">
<stop stop-color="#DFC6A5"/>
<stop offset="1" stop-color="#FFE6C6"/>
</linearGradient>
<linearGradient id="paint4_linear_5_2852" x1="3.11853" y1="24.9827" x2="3.11853" y2="-0.0143255" gradientUnits="userSpaceOnUse">
<stop stop-color="#FFE6C6"/>
<stop offset="1" stop-color="#A4927B"/>
</linearGradient>
</defs>
</svg>
