<svg width="23" height="22" viewBox="0 0 25 24" fill="none" xmlns="http://www.w3.org/2000/svg">
<path d="M23.5312 9.70495L16.0312 2.20495C15.8739 2.04749 15.6734 1.94022 15.4552 1.89671C15.2369 1.8532 15.0107 1.8754 14.805 1.96051C14.5994 2.04561 14.4236 2.1898 14.2999 2.37482C14.1763 2.55985 14.1102 2.7774 14.1102 2.99995V6.44432C11.6952 6.73682 9.07961 7.93401 6.91493 9.76963C4.18117 12.089 2.47867 15.0843 2.12055 18.2071C2.08427 18.5205 2.14771 18.8373 2.30186 19.1126C2.45601 19.3878 2.69301 19.6075 2.97916 19.7403C3.26532 19.8731 3.58606 19.9123 3.89577 19.8523C4.20548 19.7923 4.4884 19.6362 4.7043 19.4062C5.68493 18.3618 9.11055 15.1181 14.1102 14.6793V17.9999C14.1104 18.2223 14.1765 18.4396 14.3002 18.6244C14.4238 18.8093 14.5994 18.9533 14.8049 19.0384C15.0103 19.1234 15.2363 19.1457 15.4544 19.1024C15.6725 19.0591 15.8729 18.9521 16.0302 18.7949L23.5302 11.2949C23.741 11.0841 23.8595 10.7983 23.8597 10.5001C23.8599 10.202 23.7417 9.91601 23.5312 9.70495ZM16.3602 15.2812V13.4999C16.3602 13.2016 16.2417 12.9154 16.0307 12.7045C15.8198 12.4935 15.5336 12.3749 15.2352 12.3749C10.6415 12.3749 7.1193 14.3962 4.94243 16.1353C5.61086 14.4328 6.78274 12.8334 8.37086 11.4862C10.4821 9.69463 13.0481 8.62495 15.2352 8.62495C15.5336 8.62495 15.8198 8.50642 16.0307 8.29544C16.2417 8.08446 16.3602 7.79832 16.3602 7.49995V5.7187L21.1415 10.4999L16.3602 15.2812Z" fill="url(#paint0_linear_1_1260)"/>
<defs>
<linearGradient id="paint0_linear_1_1260" x1="12.9852" y1="1.875" x2="12.9852" y2="19.8796" gradientUnits="userSpaceOnUse">
<stop stop-color="#F4DBBA"/>
<stop offset="1" stop-color="#965A2A"/>
</linearGradient>
</defs>
</svg>
